<svg width="38" height="29" viewBox="0 0 38 29" fill="none" xmlns="http://www.w3.org/2000/svg">
<circle cx="25" cy="16" r="12" stroke="#0E67DD" stroke-width="2"/>
<path d="M33.2144 19.6774C32.3637 21.5778 30.8803 23.1245 29.017 24.0538C27.1537 24.9832 25.0258 25.2377 22.9959 24.774C20.9659 24.3104 19.1596 23.1572 17.8846 21.511C16.6096 19.8648 15.9448 17.8275 16.0036 15.7461C16.0623 13.6647 16.8409 11.6681 18.2067 10.0965C19.5726 8.52481 21.4411 7.47535 23.4939 7.12691C25.5467 6.77847 27.6569 7.1526 29.4648 8.18556C31.2727 9.21851 32.6665 10.8464 33.4088 12.7918L25 16L33.2144 19.6774Z" fill="#0E67DD"/>
<rect x="16" y="4" width="2" height="3" rx="1" transform="rotate(-30 16 4)" fill="#0E67DD"/>
<rect width="2" height="3" rx="1" transform="matrix(-0.866025 -0.5 -0.5 0.866025 34.2319 4)" fill="#0E67DD"/>
<path d="M25 4V1H23H27" stroke="#0E67DD" stroke-width="2" stroke-linecap="round" stroke-linejoin="round"/>
<path d="M12 9H9" stroke="#0E67DD" stroke-width="2" stroke-linecap="round" stroke-linejoin="round"/>
<path d="M12 23H9" stroke="#0E67DD" stroke-width="2" stroke-linecap="round" stroke-linejoin="round"/>
<path d="M10.5 12H4" stroke="#0E67DD" stroke-width="2" stroke-linecap="round" stroke-linejoin="round"/>
<path d="M10.5 20H4" stroke="#0E67DD" stroke-width="2" stroke-linecap="round" stroke-linejoin="round"/>
<path d="M9 16H1" stroke="#0E67DD" stroke-width="2" stroke-linecap="round" stroke-linejoin="round"/>
</svg>
