<svg width="32" height="35" viewBox="0 0 32 35" fill="none" xmlns="http://www.w3.org/2000/svg">
<path d="M0 7C0 4.79086 1.79086 3 4 3H28C30.2091 3 32 4.79086 32 7V10C32 10.5523 31.5523 11 31 11H1C0.447715 11 0 10.5523 0 10V7Z" fill="#FFD389"/>
<path d="M7 1C7 0.447715 7.44772 0 8 0C8.55228 0 9 0.447715 9 1V3H7V1Z" fill="#FFD389"/>
<path d="M25 1C25 0.447715 25.4477 0 26 0C26.5523 0 27 0.447715 27 1V3H25V1Z" fill="#FFD389"/>
<path fill-rule="evenodd" clip-rule="evenodd" d="M1 13C0.447715 13 0 13.4477 0 14V31C0 33.2091 1.79086 35 4 35H28C30.2091 35 32 33.2091 32 31V14C32 13.4477 31.5523 13 31 13H1ZM22.7537 19.6573C23.1167 19.241 23.0735 18.6093 22.6573 18.2463C22.241 17.8833 21.6093 17.9265 21.2463 18.3427L15.0845 25.4083L11.6562 22.4272C11.2394 22.0648 10.6078 22.1089 10.2454 22.5256C9.883 22.9424 9.92706 23.574 10.3438 23.9364L14.5256 27.5728C14.942 27.9348 15.5729 27.8913 15.9355 27.4754L22.7537 19.6573Z" fill="#FFD389"/>
</svg>
