<svg width="49" height="46" viewBox="0 0 49 46" fill="none" xmlns="http://www.w3.org/2000/svg">
<path d="M17.3911 10.236L26.1796 4.57975C29.8199 2.23687 34.6702 3.28863 37.0131 6.92893C39.356 10.5692 38.3042 15.4196 34.6639 17.7624L25.8754 23.4187L17.3911 10.236Z" fill="#5FE48C"/>
<path d="M4.78879 27.6684C2.44591 24.0281 3.49768 19.1777 7.13798 16.8349L15.9264 11.1787L24.4108 24.3613L15.6223 30.0176C11.982 32.3604 7.13167 31.3087 4.78879 27.6684Z" fill="#5FE48C"/>
<path d="M32.7272 19.8235C31.9003 19.0333 30.9258 18.4138 29.8594 18.0002C28.7931 17.5867 27.6557 17.3872 26.5123 17.4132C25.3688 17.4392 24.2417 17.6902 23.1953 18.1518C22.1488 18.6134 21.2035 19.2766 20.4134 20.1035C19.6232 20.9304 19.0037 21.9049 18.5901 22.9712C18.1766 24.0376 17.9771 25.1749 18.0031 26.3184C18.0291 27.4618 18.2801 28.5889 18.7417 29.6354C19.2033 30.6818 19.8665 31.6271 20.6934 32.4173L26.7103 26.1204L32.7272 19.8235Z" fill="#5FE48C" stroke="#EAF9EF" stroke-width="1.74188"/>
<path d="M32.7272 19.8235C33.5541 20.6136 34.2173 21.5589 34.6789 22.6054C35.1405 23.6518 35.3915 24.7789 35.4175 25.9224C35.4435 27.0658 35.244 28.2032 34.8304 29.2695C34.4169 30.3359 33.7973 31.3104 33.0072 32.1373C32.217 32.9642 31.2718 33.6274 30.2253 34.089C29.1788 34.5506 28.0517 34.8016 26.9083 34.8276C25.7648 34.8536 24.6275 34.6541 23.5611 34.2405C22.4948 33.827 21.5203 33.2074 20.6934 32.4173L26.7103 26.1204L32.7272 19.8235Z" fill="#5FE48C" stroke="#EAF9EF" stroke-width="1.74188"/>
</svg>
