<svg width="104" height="57" viewBox="0 0 104 57" fill="none" xmlns="http://www.w3.org/2000/svg">
<circle cx="22.3572" cy="12.5" r="11.5" fill="#0E67DD" stroke="#E7F0FC" stroke-width="2"/>
<path d="M43.7143 47.0002C43.7143 44.1956 43.1619 41.4184 42.0886 38.8272C41.0153 36.236 39.4421 33.8816 37.4589 31.8985C35.4757 29.9153 33.1213 28.3421 30.5302 27.2688C27.939 26.1955 25.1618 28.9288 22.3571 28.9288C19.5525 28.9288 16.7753 26.1955 14.1841 27.2688C11.5929 28.3421 9.23856 29.9153 7.25536 31.8985C5.27217 33.8816 3.69901 36.236 2.62572 38.8272C1.55242 41.4184 1 44.1956 1 47.0002L22.3571 47.0002H43.7143Z" fill="#0E67DD" stroke="#E7F0FC" stroke-width="2"/>
<circle cx="81.3572" cy="14.5" r="11.5" fill="#0E67DD" stroke="#E7F0FC" stroke-width="2"/>
<path d="M102.714 49.0002C102.714 46.1956 102.162 43.4184 101.089 40.8272C100.015 38.236 98.4421 35.8816 96.4589 33.8985C94.4757 31.9153 92.1213 30.3421 89.5302 29.2688C86.939 28.1955 84.1618 30.9288 81.3571 30.9288C78.5525 30.9288 75.7753 28.1955 73.1841 29.2688C70.5929 30.3421 68.2386 31.9153 66.2554 33.8985C64.2722 35.8816 62.699 38.236 61.6257 40.8272C60.5524 43.4184 60 46.1956 60 49.0002L81.3571 49.0002H102.714Z" fill="#0E67DD" stroke="#E7F0FC" stroke-width="2"/>
<circle cx="51.3572" cy="18.5" r="11.5" fill="#0E67DD" stroke="#E7F0FC" stroke-width="2"/>
<path d="M72.7143 55.0002H74.7143V53.0002C74.7143 49.9329 74.1101 46.8957 72.9363 44.0618C71.7625 41.228 70.042 38.6532 67.8731 36.4842C65.7042 34.3153 63.1294 32.5949 60.2955 31.421C58.1736 30.5421 56.1167 31.3035 54.779 31.8401C54.52 31.9441 54.2853 32.0415 54.0643 32.1333C53.6175 32.3188 53.2264 32.4812 52.8017 32.6275C52.2043 32.8333 51.7433 32.9288 51.3571 32.9288C50.971 32.9288 50.51 32.8333 49.9126 32.6275C49.4879 32.4812 49.0967 32.3188 48.65 32.1333C48.429 32.0415 48.1943 31.9441 47.9353 31.8401C46.5976 31.3035 44.5406 30.5421 42.4188 31.421C39.5849 32.5949 37.0101 34.3153 34.8411 36.4842C32.6722 38.6532 30.9518 41.228 29.778 44.0618C28.6041 46.8957 28 49.9329 28 53.0002L28 55.0002H30L51.3571 55.0002H72.7143Z" fill="#0E67DD" stroke="#E7F0FC" stroke-width="4"/>
</svg>
