<svg width="43" height="31" viewBox="0 0 43 31" fill="none" xmlns="http://www.w3.org/2000/svg">
<path d="M42 28.0001C42 26.2929 41.6637 24.6025 41.0104 23.0252C40.3571 21.448 39.3995 20.0149 38.1924 18.8077C36.9852 17.6006 35.5521 16.643 33.9749 15.9897C32.3977 15.3364 30.7072 17.0001 29 17.0001C27.2928 17.0001 25.6023 15.3364 24.0251 15.9897C22.4479 16.643 21.0148 17.6006 19.8076 18.8077C18.6004 20.0149 17.6429 21.448 16.9896 23.0252C16.3363 24.6025 16 26.2929 16 28.0001L29 28.0001H42Z" fill="#0E67DD" stroke="#E8F1FC" stroke-width="2"/>
<circle cx="29" cy="7" r="7" fill="#0E67DD"/>
<circle cx="14" cy="9" r="7" fill="#0E67DD"/>
<path d="M27 30.0001C27 28.2929 26.6637 26.6025 26.0104 25.0252C25.3571 23.448 24.3995 22.0149 23.1924 20.8077C21.9852 19.6006 20.5521 18.643 18.9749 17.9897C17.3977 17.3364 15.7072 19.0001 14 19.0001C12.2928 19.0001 10.6023 17.3364 9.02512 17.9897C7.44788 18.643 6.01477 19.6006 4.80761 20.8077C3.60045 22.0149 2.64288 23.448 1.98957 25.0252C1.33625 26.6025 1 28.2929 1 30.0001L14 30.0001H27Z" fill="#0E67DD" stroke="#E8F1FC" stroke-width="2"/>
</svg>
