<svg width="18" height="29" viewBox="0 0 18 29" fill="none" xmlns="http://www.w3.org/2000/svg">
<path d="M17.976 19.472C17.976 20.6453 17.6667 21.7333 17.048 22.736C16.4507 23.7173 15.5547 24.528 14.36 25.168C13.1867 25.7867 11.7893 26.128 10.168 26.192V28.784H8.12V26.16C5.85867 25.968 4.03467 25.296 2.648 24.144C1.26133 22.9707 0.525333 21.3813 0.44 19.376H6.264C6.392 20.656 7.01067 21.4773 8.12 21.84V16.784C6.456 16.3573 5.12267 15.9413 4.12 15.536C3.13867 15.1307 2.27467 14.48 1.528 13.584C0.781333 12.688 0.408 11.4613 0.408 9.904C0.408 7.96267 1.12267 6.40533 2.552 5.232C4.00267 4.05866 5.85867 3.39733 8.12 3.248V0.655998H10.168V3.248C12.408 3.41867 14.1787 4.06933 15.48 5.2C16.7813 6.33067 17.5067 7.89867 17.656 9.904H11.8C11.672 8.752 11.128 8.00533 10.168 7.664V12.624C11.9387 13.1147 13.304 13.552 14.264 13.936C15.224 14.32 16.0773 14.96 16.824 15.856C17.592 16.7307 17.976 17.936 17.976 19.472ZM6.2 9.648C6.2 10.1813 6.36 10.6293 6.68 10.992C7.02133 11.3547 7.50133 11.6747 8.12 11.952V7.504C7.52267 7.61067 7.05333 7.84533 6.712 8.208C6.37067 8.54933 6.2 9.02933 6.2 9.648ZM10.168 21.936C10.808 21.8293 11.3093 21.5733 11.672 21.168C12.056 20.7627 12.248 20.2613 12.248 19.664C12.248 19.1093 12.0667 18.6613 11.704 18.32C11.3627 17.9573 10.8507 17.648 10.168 17.392V21.936Z" fill="#0E67DD"/>
</svg>
