<svg width="38" height="26" viewBox="0 0 38 26" fill="none" xmlns="http://www.w3.org/2000/svg">
<path fill-rule="evenodd" clip-rule="evenodd" d="M0 9.47651C0 8.4824 0.805887 7.67651 1.8 7.67651H19.8C20.7941 7.67651 21.6 8.4824 21.6 9.47651V19.3765C21.6 20.3706 20.7941 21.1765 19.8 21.1765H13.5H11.3768C11.0017 21.1765 10.6359 21.2937 10.3306 21.5118L5.21156 25.1683C4.91372 25.381 4.5 25.1681 4.5 24.8021V22.9765C4.5 21.9824 3.69411 21.1765 2.7 21.1765H1.8C0.805887 21.1765 0 20.3706 0 19.3765V9.47651ZM1.8 10.1515C1.8 9.77873 2.10221 9.47653 2.475 9.47653H14.625C14.9978 9.47653 15.3 9.77873 15.3 10.1515C15.3 10.5243 14.9978 10.8265 14.625 10.8265H2.475C2.10221 10.8265 1.8 10.5243 1.8 10.1515ZM2.475 12.6265C2.10221 12.6265 1.8 12.9287 1.8 13.3015C1.8 13.6743 2.10221 13.9765 2.475 13.9765H8.325C8.69779 13.9765 9 13.6743 9 13.3015C9 12.9287 8.69779 12.6265 8.325 12.6265H2.475Z" fill="#FE7B67"/>
<path d="M34.2 1.60149C35.5669 1.60149 36.675 2.70958 36.675 4.07649V13.9765C36.675 15.3434 35.5669 16.4515 34.2 16.4515H33.3C32.6787 16.4515 32.175 16.9552 32.175 17.5765V19.4021C32.175 20.3171 31.1407 20.8494 30.3961 20.3175L25.2771 16.661C25.0863 16.5248 24.8576 16.4515 24.6232 16.4515H22.5H16.2C14.8331 16.4515 13.725 15.3434 13.725 13.9765V4.07649C13.725 2.70958 14.8331 1.60149 16.2 1.60149H34.2Z" fill="#FE7B67" stroke="#FFF2F0" stroke-width="1.35"/>
<rect width="13.5" height="1.35" rx="0.675" transform="matrix(-1 0 0 1 34.2 4.07642)" fill="white"/>
<rect width="7.2" height="1.35" rx="0.675" transform="matrix(-1 0 0 1 34.2 7.22644)" fill="white"/>
</svg>
