<svg width="50" height="50" viewBox="0 0 50 50" fill="none" xmlns="http://www.w3.org/2000/svg">
<rect width="50" height="50" rx="25" fill="white" fill-opacity="0.08"/>
<path d="M15.76 29.106L19.792 25.038L15.76 20.988H18.658L22.69 25.038L18.658 29.106H15.76ZM24.9745 31.626C24.5545 31.626 24.2065 31.494 23.9305 31.23C23.6665 30.966 23.5345 30.648 23.5345 30.276C23.5345 29.892 23.6665 29.568 23.9305 29.304C24.2065 29.04 24.5545 28.908 24.9745 28.908C25.3945 28.908 25.7365 29.04 26.0005 29.304C26.2765 29.568 26.4145 29.892 26.4145 30.276C26.4145 30.648 26.2765 30.966 26.0005 31.23C25.7365 31.494 25.3945 31.626 24.9745 31.626ZM31.2684 29.106L27.2544 25.038L31.2684 20.988H34.1844L30.1344 25.038L34.1844 29.106H31.2684Z" fill="white"/>
</svg>
