<svg width="54" height="36" viewBox="0 0 54 36" fill="none" xmlns="http://www.w3.org/2000/svg">
<path d="M48.831 6.33404C41.748 -5.30296 31.078 2.79304 31.078 2.79304C30.386 3.31604 29.11 3.74604 28.243 3.74804L25.385 3.75004C24.518 3.75104 23.242 3.32104 22.551 2.79804C22.551 2.79804 11.88 -5.29996 4.79601 6.33704C-2.28599 17.97 0.568008 30.639 0.568008 30.639C1.06801 33.741 2.71601 35.811 5.82601 35.551C8.92701 35.292 15.658 27.197 15.658 27.197C16.214 26.53 17.379 25.985 18.244 25.985L35.378 25.982C36.244 25.982 37.408 26.527 37.963 27.194C37.963 27.194 44.695 35.289 47.801 35.548C50.907 35.808 52.559 33.736 53.056 30.636C53.055 30.636 55.914 17.969 48.831 6.33404ZM20.374 15.806H16.7V19.347C16.7 19.347 15.922 19.941 14.718 19.926C13.516 19.908 12.972 19.278 12.972 19.278V15.807H9.50201C9.50201 15.807 9.06901 15.363 8.95301 14.194C8.83901 13.025 9.43201 12.08 9.43201 12.08H13.107V8.40604C13.107 8.40604 13.863 8.00104 14.95 8.03204C16.038 8.06604 16.835 8.47504 16.835 8.47504L16.82 12.079H20.29C20.29 12.079 20.896 12.857 20.946 13.797C20.996 14.738 20.374 15.806 20.374 15.806ZM37.226 19.842C35.617 19.842 34.32 18.541 34.32 16.934C34.32 15.324 35.617 14.026 37.226 14.026C38.828 14.026 40.135 15.324 40.135 16.934C40.135 18.542 38.828 19.842 37.226 19.842ZM37.226 11.841C35.617 11.841 34.32 10.541 34.32 8.93404C34.32 7.32404 35.617 6.02604 37.226 6.02604C38.828 6.02604 40.135 7.32404 40.135 8.93404C40.135 10.542 38.828 11.841 37.226 11.841ZM44.468 16.136C42.859 16.136 41.562 14.836 41.562 13.228C41.562 11.619 42.859 10.32 44.468 10.32C46.07 10.32 47.377 11.619 47.377 13.228C47.377 14.836 46.07 16.136 44.468 16.136Z" fill="white"/>
</svg>
