<svg width="30" height="30" viewBox="0 0 30 30" fill="none" xmlns="http://www.w3.org/2000/svg">
<path fill-rule="evenodd" clip-rule="evenodd" d="M2.49999 15C2.49999 8.09625 8.09624 2.5 15 2.5C21.9037 2.5 27.5 8.09625 27.5 15C27.5 21.9037 21.9037 27.5 15 27.5C12.8375 27.5033 10.7115 26.9432 8.83124 25.875L4.14499 27.4362C3.92475 27.5097 3.6884 27.5204 3.46244 27.467C3.23647 27.4137 3.02983 27.2985 2.86566 27.1343C2.70149 26.9702 2.58629 26.7635 2.53296 26.5376C2.47964 26.3116 2.49029 26.0752 2.56374 25.855L4.12624 21.1687C3.05754 19.2887 2.49706 17.1626 2.49999 15ZM15.2762 5.31C14.9562 5.2452 14.6235 5.30819 14.3494 5.4855C14.0752 5.66281 13.8813 5.94037 13.8091 6.25881C13.7369 6.57725 13.7922 6.91129 13.9631 7.1895C14.1341 7.4677 14.4071 7.66798 14.7237 7.7475C16.5595 8.16772 18.2397 9.09699 19.5713 10.4287C20.903 11.7603 21.8323 13.4405 22.2525 15.2762C22.2856 15.4395 22.3509 15.5945 22.4447 15.7322C22.5386 15.8698 22.6589 15.9873 22.7988 16.0778C22.9387 16.1683 23.0953 16.2299 23.2593 16.259C23.4233 16.2881 23.5915 16.2841 23.754 16.2472C23.9164 16.2104 24.0699 16.1415 24.2053 16.0445C24.3408 15.9475 24.4555 15.8245 24.5427 15.6825C24.6299 15.5406 24.6878 15.3827 24.7131 15.218C24.7384 15.0534 24.7306 14.8853 24.69 14.7238C24.1655 12.4281 23.0041 10.327 21.3391 8.66174C19.6741 6.99653 17.5731 5.83479 15.2775 5.31H15.2762ZM11.25 11.25C11.25 10.9185 11.3817 10.6005 11.6161 10.3661C11.8505 10.1317 12.1685 10 12.5 10C14.4891 10 16.3968 10.7902 17.8033 12.1967C19.2098 13.6032 20 15.5109 20 17.5C20 17.8315 19.8683 18.1495 19.6339 18.3839C19.3995 18.6183 19.0815 18.75 18.75 18.75C18.4185 18.75 18.1005 18.6183 17.8661 18.3839C17.6317 18.1495 17.5 17.8315 17.5 17.5C17.5 16.1739 16.9732 14.9021 16.0355 13.9645C15.0978 13.0268 13.8261 12.5 12.5 12.5C12.1685 12.5 11.8505 12.3683 11.6161 12.1339C11.3817 11.8995 11.25 11.5815 11.25 11.25ZM12.5 15C12.1685 15 11.8505 15.1317 11.6161 15.3661C11.3817 15.6005 11.25 15.9185 11.25 16.25C11.25 16.5815 11.3817 16.8995 11.6161 17.1339C11.8505 17.3683 12.1685 17.5 12.5 17.5C12.5 17.8315 12.6317 18.1495 12.8661 18.3839C13.1005 18.6183 13.4185 18.75 13.75 18.75C14.0815 18.75 14.3995 18.6183 14.6339 18.3839C14.8683 18.1495 15 17.8315 15 17.5C15 16.837 14.7366 16.2011 14.2678 15.7322C13.7989 15.2634 13.163 15 12.5 15Z" fill="#19B31A"/>
</svg>
