<svg width="27" height="33" viewBox="0 0 27 33" fill="none" xmlns="http://www.w3.org/2000/svg">
<path d="M13.2756 0C12.2286 0.0217882 11.4766 0.232407 10.9777 0.610069L4.14013 4.39395L0.338347 9.73859C-0.462768 11.0168 0.106445 13.4862 2.60817 11.9029L5.34883 8.16984C8.82735 5.06939 15.9249 6.49215 12.5589 12.7163C10.9074 16.3186 11.6804 18.0762 13.8097 18.817L14.7795 15.4471C16.459 11.5397 19.5932 10.8353 19.4667 7.68324L27 8.24247L26.9297 0.101678L13.2756 0ZM9.47386 7.50893C8.25111 7.48715 7.04944 8.01006 6.17805 8.76539L3.43037 12.4984C4.18229 13.1158 4.94124 12.7817 5.69316 12.0336C6.57861 12.4984 7.26728 11.7794 7.82947 10.3414C8.06137 9.36093 8.40571 8.67097 9.47386 7.50893ZM3.88012 14.4812C3.85201 14.4812 3.81687 14.4812 3.78876 14.4884C3.55686 14.5393 3.28279 14.7935 3.10008 15.3745C2.91035 15.9555 2.86818 16.7834 3.03684 17.6695C3.20549 18.5483 3.55686 19.2963 3.95039 19.7612C4.32986 20.2187 4.68123 20.3494 4.91313 20.2986C5.15206 20.255 5.4191 19.9936 5.60181 19.4198C5.79155 18.8388 5.84074 18.0036 5.67208 17.1248C5.4964 16.2387 5.14503 15.4907 4.75853 15.0331C4.42122 14.6264 4.11202 14.4812 3.88012 14.4812ZM9.68468 22.2377C9.12952 22.245 8.43382 22.4266 7.75217 22.7679C6.97214 23.1674 6.36076 23.7193 6.03048 24.2277C5.70019 24.7289 5.67208 25.1065 5.77749 25.3317C5.8829 25.5496 6.1921 25.7602 6.7824 25.7892C7.37269 25.8255 8.16678 25.6585 8.94681 25.259C9.72685 24.8596 10.3382 24.3149 10.6685 23.8065C10.9988 23.3054 11.0269 22.9204 10.9215 22.7026C10.8161 22.4774 10.5069 22.2741 9.91658 22.245C9.83928 22.2377 9.76901 22.2377 9.68468 22.2377ZM2.82602 29.1809C2.49573 29.1882 2.19356 29.239 1.92652 29.3189C1.3292 29.5005 0.98486 29.8273 0.872423 30.2122C0.752958 30.6044 0.872423 31.0692 1.27298 31.5704C1.68056 32.0642 2.36221 32.5363 3.20549 32.7978C4.04174 33.0592 4.85691 33.0519 5.46126 32.8631C6.06561 32.6815 6.40995 32.3547 6.52239 31.9698C6.63482 31.5776 6.52239 31.1128 6.1148 30.6117C5.71425 30.1178 5.0326 29.6457 4.18932 29.3843C3.71146 29.239 3.24766 29.1737 2.82602 29.1809Z" fill="#FEB137"/>
</svg>
