<svg width="30" height="30" viewBox="0 0 30 30" fill="none" xmlns="http://www.w3.org/2000/svg">
<g clip-path="url(#clip0_1_255)">
<path d="M19.6781 12.975L22.0744 11.8144C22.2057 11.751 22.3198 11.6569 22.4069 11.5399C22.494 11.423 22.5516 11.2868 22.5748 11.1429C22.598 10.9989 22.5861 10.8515 22.5401 10.7131C22.4941 10.5748 22.4154 10.4496 22.3106 10.3481C21.8381 9.89064 21.0319 10.0875 20.5631 10.5488C20.1319 10.9725 19.6013 11.2481 19.0331 11.5425L18.8419 11.6438C18.2081 11.9775 18.3469 12.8175 19.0294 13.0238C19.2443 13.0891 19.476 13.0729 19.6781 12.975ZM14.5144 18.39V18.3375C14.5142 18.2208 14.5405 18.1055 14.5912 18.0003C14.6419 17.8951 14.7157 17.8028 14.8072 17.7302C14.8986 17.6576 15.0052 17.6066 15.1192 17.581C15.2331 17.5554 15.3513 17.556 15.465 17.5825C15.5787 17.6091 15.6849 17.661 15.7757 17.7345C15.8665 17.8079 15.9395 17.9009 15.9892 18.0065C16.039 18.1121 16.0643 18.2276 16.0631 18.3443C16.0619 18.4611 16.0344 18.576 15.9825 18.6806L15.57 19.5113C15.5135 19.6278 15.4374 19.7337 15.345 19.8244L14.9831 20.1713C14.9211 20.2396 14.8457 20.2945 14.7617 20.3326C14.6776 20.3707 14.5866 20.3911 14.4943 20.3926C14.402 20.3941 14.3104 20.3767 14.2251 20.3414C14.1398 20.3061 14.0627 20.2537 13.9985 20.1874C13.9342 20.1212 13.8843 20.0424 13.8517 19.9561C13.8191 19.8697 13.8046 19.7776 13.809 19.6854C13.8134 19.5932 13.8367 19.5029 13.8774 19.42C13.9181 19.3372 13.9754 19.2636 14.0456 19.2038L14.2556 19.0013C14.3376 18.922 14.4027 18.827 14.4472 18.722C14.4916 18.6169 14.5145 18.504 14.5144 18.39ZM10.635 23.4375L11.5388 23.8744C11.6368 23.9222 11.7445 23.9472 11.8536 23.9475C11.9627 23.9478 12.0705 23.9235 12.1688 23.8763C12.2672 23.8291 12.3536 23.7602 12.4216 23.6749C12.4897 23.5896 12.5375 23.49 12.5616 23.3836C12.5857 23.2772 12.5854 23.1667 12.5608 23.0604C12.5362 22.9541 12.4878 22.8548 12.4194 22.7698C12.351 22.6848 12.2642 22.6164 12.1656 22.5697C12.067 22.523 11.9591 22.4991 11.85 22.5H11.07C10.7869 22.4999 10.5114 22.4085 10.2844 22.2394L9.765 21.8531C9.70083 21.8049 9.62713 21.7708 9.54879 21.7532C9.47045 21.7356 9.38927 21.7349 9.31062 21.7511C9.23198 21.7672 9.15767 21.8 9.09264 21.847C9.0276 21.8941 8.97332 21.9545 8.9334 22.0242C8.89348 22.0938 8.86883 22.1712 8.86108 22.2511C8.85334 22.331 8.86268 22.4117 8.88848 22.4877C8.91429 22.5637 8.95596 22.6334 9.01075 22.6921C9.06554 22.7508 9.13218 22.7972 9.20625 22.8281L10.635 23.4375Z" fill="#3258E8"/>
<path d="M15 0C11.0218 0 7.20644 1.58035 4.3934 4.3934C1.58035 7.20644 0 11.0218 0 15C0 18.9782 1.58035 22.7936 4.3934 25.6066C7.20644 28.4196 11.0218 30 15 30C18.9782 30 22.7936 28.4196 25.6066 25.6066C28.4196 22.7936 30 18.9782 30 15C30 11.0218 28.4196 7.20644 25.6066 4.3934C22.7936 1.58035 18.9782 0 15 0ZM3.0225 20.3756L4.44 17.9606C4.58221 17.7182 4.77712 17.5108 5.01029 17.3538C5.24347 17.1969 5.50895 17.0944 5.7871 17.0538C6.06525 17.0133 6.34895 17.0359 6.61721 17.1198C6.88546 17.2038 7.13142 17.3469 7.33687 17.5387L9.35063 19.4231C9.69703 19.7477 10.155 19.9267 10.6298 19.9228C11.1045 19.919 11.5595 19.7327 11.9006 19.4025L11.9719 19.3331C12.1588 19.1521 12.3003 18.9296 12.385 18.6836C12.4697 18.4377 12.4952 18.1752 12.4594 17.9175C12.3188 16.89 13.1531 15.9806 14.1844 15.8569C15.5494 15.6956 17.16 15.2494 17.4244 14.0625C17.5856 13.3387 17.2106 12.5063 16.7475 11.8125C16.3594 11.2275 16.7475 10.3125 17.4487 10.3125C17.6794 10.3125 17.8987 10.2094 18.045 10.0312L18.7819 9.1425C19.1494 8.69812 19.7025 8.4525 20.2763 8.38688C21.315 8.26688 22.9144 7.8675 23.2444 6.5625C23.4281 5.82937 22.8844 5.37375 22.3369 4.9125C21.8606 4.515 21.3806 4.11375 21.3713 3.52312C23.8619 4.90447 25.8355 7.05868 26.994 9.66048C28.1525 12.2623 28.433 15.1704 27.7931 17.9456C27.7409 17.9034 27.6864 17.864 27.63 17.8275L27.0375 17.445C26.7674 17.2708 26.4571 17.169 26.1363 17.1493C25.8155 17.1296 25.495 17.1927 25.2056 17.3325L24.8888 17.4862C24.4551 17.6953 23.9576 17.7296 23.4994 17.5819L21.585 16.965C21.399 16.9052 21.2048 16.8748 21.0094 16.875H20.7C20.3099 16.8751 19.9295 16.997 19.6119 17.2235C19.2943 17.45 19.0553 17.77 18.9281 18.1388L18.6056 19.0744C18.4682 19.4714 18.2015 19.8108 17.8481 20.0381L16.3444 21.0094C16.081 21.1792 15.8644 21.4124 15.7144 21.6875C15.5644 21.9627 15.4857 22.271 15.4856 22.5844V23.4375C15.4856 23.9348 15.6832 24.4117 16.0348 24.7633C16.3864 25.115 16.8633 25.3125 17.3606 25.3125H17.8425C18.203 25.3127 18.5559 25.4169 18.8587 25.6125L20.2875 26.5312C20.451 26.6371 20.63 26.7168 20.8181 26.7675C19.2359 27.5498 17.5122 28.0049 15.7501 28.1057C13.9879 28.2066 12.2235 27.951 10.5624 27.3543C8.90131 26.7576 7.3776 25.832 6.08241 24.6329C4.78721 23.4339 3.74714 21.9859 3.02437 20.3756H3.0225Z" fill="#3258E8"/>
</g>
<defs>
<clipPath id="clip0_1_255">
<rect width="30" height="30" fill="white"/>
</clipPath>
</defs>
</svg>
