<svg width="36" height="29" viewBox="0 0 36 29" fill="none" xmlns="http://www.w3.org/2000/svg">
<path d="M6.3 0C4.80937 0 3.6 1.21777 3.6 2.71875V5.4375H0.9C0.405 5.4375 0 5.84531 0 6.34375C0 6.84219 0.405 7.25 0.9 7.25H15.3C15.795 7.25 16.2 7.65781 16.2 8.15625C16.2 8.65469 15.795 9.0625 15.3 9.0625H2.7C2.205 9.0625 1.8 9.47031 1.8 9.96875C1.8 10.4672 2.205 10.875 2.7 10.875H13.5C13.995 10.875 14.4 11.2828 14.4 11.7812C14.4 12.2797 13.995 12.6875 13.5 12.6875H0.9C0.405 12.6875 0 13.0953 0 13.5938C0 14.0922 0.405 14.5 0.9 14.5H11.7C12.195 14.5 12.6 14.9078 12.6 15.4062C12.6 15.9047 12.195 16.3125 11.7 16.3125H3.6V23.5625C3.6 26.5645 6.01875 29 9 29C11.9813 29 14.4 26.5645 14.4 23.5625H21.6C21.6 26.5645 24.0188 29 27 29C29.9813 29 32.4 26.5645 32.4 23.5625H34.2C35.1956 23.5625 36 22.7525 36 21.75C36 20.7475 35.1956 19.9375 34.2 19.9375V13.4408C34.2 12.4779 33.8231 11.5547 33.1481 10.875L28.8 6.49668C28.125 5.81699 27.2081 5.4375 26.2519 5.4375H23.4V2.71875C23.4 1.21777 22.1906 0 20.7 0H6.3ZM30.6 13.4408V14.5H23.4V9.0625H26.2519L30.6 13.4408ZM9 26.2812C7.50938 26.2812 6.3 25.0635 6.3 23.5625C6.3 22.0615 7.50938 20.8438 9 20.8438C10.4906 20.8438 11.7 22.0615 11.7 23.5625C11.7 25.0635 10.4906 26.2812 9 26.2812ZM29.7 23.5625C29.7 25.0635 28.4906 26.2812 27 26.2812C25.5094 26.2812 24.3 25.0635 24.3 23.5625C24.3 22.0615 25.5094 20.8438 27 20.8438C28.4906 20.8438 29.7 22.0615 29.7 23.5625Z" fill="#E3534B"/>
</svg>
